<?xml version="1.0" encoding="iso-8859-1"?>
<!-- Generator: Adobe Illustrator 18.0.0, SVG Export Plug-In . SVG Version: 6.00 Build 0)  -->
<!DOCTYPE svg PUBLIC "-//W3C//DTD SVG 1.1//EN" "http://www.w3.org/Graphics/SVG/1.1/DTD/svg11.dtd">
<svg version="1.1" id="Capa_1" xmlns="http://www.w3.org/2000/svg" xmlns:xlink="http://www.w3.org/1999/xlink" x="0px" y="0px"
	 viewBox="0 0 474.054 474.054" style="enable-background:new 0 0 474.054 474.054;" xml:space="preserve">
<g>
	<path d="M351.618,330.952v-54.745h13.954c5.799,0,10.5-4.701,10.5-10.5s-4.701-10.5-10.5-10.5h-13.954v-7.14
		c0-5.799-4.701-10.5-10.5-10.5s-10.5,4.701-10.5,10.5v8.316c-21.311,4.799-37.283,23.867-37.283,46.606
		c0,22.741,15.972,41.81,37.283,46.608v54.743h-16.36c-5.799,0-10.5,4.701-10.5,10.5s4.701,10.5,10.5,10.5h16.36v7.138
		c0,5.799,4.701,10.5,10.5,10.5s10.5-4.701,10.5-10.5v-8.315c21.311-4.799,37.283-23.867,37.283-46.606
		C388.901,354.819,372.93,335.75,351.618,330.952z M314.335,302.99c0-11.044,6.719-20.545,16.283-24.637v49.275
		C321.054,323.537,314.335,314.034,314.335,302.99z M351.618,402.195v-49.273c9.564,4.092,16.283,13.593,16.283,24.637
		C367.901,388.602,361.182,398.103,351.618,402.195z"/>
	<path d="M71.073,162.238c3.147,10.497,8.034,20.163,14.502,28.401c12.598,16.046,29.577,24.882,47.809,24.881
		c17.806,0,34.504-8.487,47.019-23.898c3.655-4.502,2.97-11.114-1.532-14.771c-4.501-3.654-11.114-2.969-14.771,1.532
		c-8.449,10.406-19.358,16.137-30.717,16.137c-11.646,0.001-22.759-5.983-31.29-16.849c-3.598-4.583-6.547-9.791-8.813-15.434
		h40.104c5.799,0,10.5-4.701,10.5-10.5c0-5.799-4.701-10.5-10.5-10.5h-45.08c-0.225-2.456-0.353-4.941-0.353-7.457
		c0-2.526,0.13-5.011,0.354-7.457h45.078c5.799,0,10.5-4.701,10.5-10.5s-4.701-10.5-10.5-10.5H93.262
		c7.645-19.187,22.758-32.283,40.122-32.283c11.357,0,22.267,5.731,30.716,16.137c3.656,4.502,10.269,5.187,14.771,1.532
		c4.502-3.656,5.188-10.268,1.532-14.77c-12.515-15.411-29.213-23.898-47.019-23.898c-28.5,0-52.86,22.201-62.272,53.283H60.378
		c-5.799,0-10.5,4.701-10.5,10.5s4.701,10.5,10.5,10.5h6.861c-0.181,2.458-0.288,4.942-0.288,7.457c0,2.505,0.099,4.991,0.279,7.457
		h-6.853c-5.799,0-10.5,4.701-10.5,10.5c0,5.799,4.701,10.5,10.5,10.5H71.073z"/>
	<path d="M132.933,266.715c73.301,0,132.936-59.634,132.936-132.935c0-73.301-59.635-132.936-132.936-132.936
		C59.634,0.845,0,60.48,0,133.781C0,207.081,59.634,266.715,132.933,266.715z M132.933,21.845
		c61.722,0,111.936,50.214,111.936,111.936c0,61.721-50.214,111.935-111.936,111.935C71.213,245.715,21,195.501,21,133.781
		C21,72.059,71.213,21.845,132.933,21.845z"/>
	<path d="M341.118,207.338c-73.3,0-132.934,59.634-132.934,132.934s59.634,132.936,132.934,132.936
		c73.301,0,132.936-59.635,132.936-132.936S414.419,207.338,341.118,207.338z M341.118,452.208
		c-61.721,0-111.934-50.214-111.934-111.936c0-61.721,50.213-111.934,111.934-111.934c61.722,0,111.936,50.214,111.936,111.934
		C453.054,401.995,402.84,452.208,341.118,452.208z"/>
	<path d="M225.868,425.075c-109.172,0-197.989-88.817-197.989-197.989c0-5.799-4.701-10.5-10.5-10.5c-5.799,0-10.5,4.701-10.5,10.5
		c0,58.494,22.779,113.487,64.141,154.849c41.361,41.361,96.354,64.141,154.849,64.141c5.799,0,10.5-4.701,10.5-10.5
		S231.667,425.075,225.868,425.075z"/>
	<path d="M225.868,29.096c109.172,0,197.989,88.817,197.989,197.989c0,5.799,4.701,10.5,10.5,10.5c5.799,0,10.5-4.701,10.5-10.5
		c0-58.494-22.779-113.487-64.141-154.849S284.362,8.096,225.868,8.096c-5.799,0-10.5,4.701-10.5,10.5
		C215.368,24.395,220.069,29.096,225.868,29.096z"/>
</g>
<g>
</g>
<g>
</g>
<g>
</g>
<g>
</g>
<g>
</g>
<g>
</g>
<g>
</g>
<g>
</g>
<g>
</g>
<g>
</g>
<g>
</g>
<g>
</g>
<g>
</g>
<g>
</g>
<g>
</g>
</svg>
